<svg width="20" height="20" viewBox="0 0 20 20" fill="none" xmlns="http://www.w3.org/2000/svg">
<g id="tiktok-coloured" clip-path="url(#clip0_2710_31667)">
<g id="tiktok-coloured_2">
<path fill-rule="evenodd" clip-rule="evenodd" d="M13.949 0C14.3144 2.75002 16.1833 4.69037 19.2067 4.8615V7.46985L19.1871 7.47147V5.25577C16.1637 5.08477 14.4255 3.44473 14.0601 0.694705L10.8573 0.694645V12.2642C11.3195 17.4718 6.71704 17.6265 4.95653 15.6521C7.02154 16.7907 10.3745 16.0506 9.97688 11.5696V0H13.949ZM5.34357 19.1793C3.53384 18.8511 1.88827 17.8978 0.921922 16.504C-1.4258 13.1176 0.690458 7.59856 7.49978 7.03058V10.2914L7.48862 10.293V7.84655C1.17564 8.73296 0.541819 14.7116 2.29016 17.1986C2.96434 18.1577 4.07123 18.8323 5.34357 19.1793Z" fill="#26F4EE"/>
<path fill-rule="evenodd" clip-rule="evenodd" d="M14.873 0.694996C15.1115 2.49026 15.9353 4.01828 17.3195 4.91069C15.4465 4.27455 14.3488 2.81457 14.067 0.694816L14.873 0.694996ZM19.1939 5.64296C19.4516 5.6912 19.7203 5.72384 20 5.73962V8.83153C18.2462 8.98376 16.7114 8.47476 14.9229 7.52655L15.1974 12.8218C15.1974 14.5295 15.2046 15.3099 14.1653 16.8808C11.8336 20.405 7.63669 20.6835 4.79861 19.005C8.50973 20.3551 14.1278 18.7164 14.1168 12.8218V7.04239C15.9053 7.9906 17.4401 8.4996 19.1939 8.34731V5.64296ZM7.49547 7.87786C7.8623 7.81054 8.24737 7.75875 8.65231 7.72497V10.9858C7.17777 11.1999 6.24123 11.5991 5.80328 12.3375C4.42395 14.6628 6.19985 16.5071 8.18646 16.7843C5.87719 17.1226 3.16917 15.0593 4.78364 12.3375C5.22152 11.5993 6.02093 11.1999 7.49547 10.9858V7.87786Z" fill="#FB2C53"/>
<path fill-rule="evenodd" clip-rule="evenodd" d="M14.0584 0.694462C14.4236 3.44448 16.161 5.08446 19.1828 5.25553V8.34732C17.4299 8.49967 15.8958 7.99061 14.1082 7.04239V12.8218C14.1223 20.3651 4.92265 20.9391 2.29435 17.1983C0.546955 14.7113 1.18039 8.73265 7.49021 7.84624V10.9857C6.01641 11.1999 5.2174 11.5992 4.77974 12.3375C2.07497 16.8997 11.5093 19.6144 10.8573 12.2642V0.694645L14.0584 0.694462Z" fill="black"/>
</g>
</g>
<defs>
<clipPath id="clip0_2710_31667">
<rect width="20" height="20" fill="white"/>
</clipPath>
</defs>
</svg>
