<svg width="14" height="17" viewBox="0 0 14 17" fill="none" xmlns="http://www.w3.org/2000/svg">
<path d="M12.307 7.26087C12.0043 7.7943 11.8414 8.39555 11.8335 9.00884C11.8343 9.6987 12.038 10.3731 12.4195 10.9478C12.8009 11.5226 13.3431 11.9724 13.9784 12.2412C13.7286 13.0526 13.3521 13.8195 12.8628 14.5134C12.2056 15.4964 11.5166 16.4568 10.423 16.4745C9.36045 16.499 9.00329 15.8491 7.78456 15.8491C6.55437 15.8491 6.1737 16.4568 5.1546 16.499C4.11309 16.5376 3.31714 15.4499 2.6361 14.476C1.2749 12.4874 0.214979 8.87159 1.63596 6.41136C1.96402 5.82187 2.43918 5.32745 3.01515 4.97617C3.59105 4.62496 4.24821 4.42885 4.92249 4.4071C5.96488 4.38565 6.93291 5.11107 7.57384 5.11107C8.20256 5.11107 9.39866 4.24326 10.6325 4.37279C11.2109 4.39087 11.7771 4.54355 12.2862 4.81879C12.7952 5.09395 13.2331 5.4841 13.565 5.95809C13.0425 6.27932 12.6098 6.72752 12.307 7.26087Z" fill="#91918D"/>
<path d="M10.6453 0.5C10.7164 1.4289 10.4227 2.34892 9.82643 3.06472C9.54091 3.41982 9.17853 3.70557 8.76655 3.90035C8.35465 4.09513 7.90389 4.19388 7.44819 4.18918C7.41917 3.74245 7.47839 3.29447 7.62262 2.87067C7.76678 2.44687 7.99308 2.05569 8.28853 1.71939C8.89286 1.03106 9.73437 0.595679 10.6453 0.5Z" fill="#91918D"/>
</svg>
