<svg width="20" height="20" viewBox="0 0 20 20" fill="none" xmlns="http://www.w3.org/2000/svg">
<g id="discord-coloured">
<g id="Vector">
<path d="M16.9308 3.74342C15.6561 3.16789 14.2892 2.74387 12.8599 2.50102C12.8339 2.49633 12.8079 2.50804 12.7945 2.53147C12.6187 2.83914 12.4239 3.24051 12.2876 3.55599C10.7503 3.32954 9.22099 3.32954 7.71527 3.55599C7.57887 3.2335 7.37707 2.83914 7.20048 2.53147C7.18707 2.50883 7.16107 2.49711 7.13504 2.50102C5.70659 2.7431 4.33963 3.16712 3.06411 3.74342C3.05307 3.7481 3.04361 3.75592 3.03732 3.76606C0.444493 7.57759 -0.265792 11.2954 0.0826501 14.9672C0.0842267 14.9852 0.0944749 15.0023 0.108665 15.0133C1.81934 16.2494 3.47642 16.9998 5.10273 17.4973C5.12876 17.5051 5.15634 17.4957 5.1729 17.4746C5.55761 16.9577 5.90054 16.4126 6.19456 15.8394C6.21192 15.8059 6.19535 15.766 6.15989 15.7528C5.61594 15.5497 5.098 15.3022 4.59977 15.0211C4.56037 14.9984 4.55721 14.943 4.59347 14.9164C4.69831 14.8391 4.80318 14.7587 4.9033 14.6775C4.92141 14.6626 4.94665 14.6595 4.96794 14.6689C8.24107 16.1393 11.7846 16.1393 15.0191 14.6689C15.0404 14.6587 15.0657 14.6619 15.0846 14.6767C15.1847 14.7579 15.2895 14.8391 15.3952 14.9164C15.4314 14.943 15.4291 14.9984 15.3897 15.0211C14.8914 15.3076 14.3735 15.5497 13.8288 15.752C13.7933 15.7653 13.7775 15.8059 13.7949 15.8394C14.0952 16.4118 14.4381 16.9569 14.8157 17.4738C14.8315 17.4957 14.8599 17.5051 14.8859 17.4973C16.5201 16.9998 18.1772 16.2494 19.8879 15.0133C19.9028 15.0023 19.9123 14.9859 19.9139 14.968C20.3309 10.723 19.2154 7.03566 16.9568 3.76684C16.9513 3.75592 16.9419 3.7481 16.9308 3.74342ZM6.68335 12.7315C5.69792 12.7315 4.88594 11.8413 4.88594 10.748C4.88594 9.65476 5.68217 8.76456 6.68335 8.76456C7.69239 8.76456 8.49651 9.66258 8.48073 10.748C8.48073 11.8413 7.68451 12.7315 6.68335 12.7315ZM13.329 12.7315C12.3435 12.7315 11.5316 11.8413 11.5316 10.748C11.5316 9.65476 12.3278 8.76456 13.329 8.76456C14.338 8.76456 15.1421 9.66258 15.1264 10.748C15.1264 11.8413 14.338 12.7315 13.329 12.7315Z" fill="#5865F2"/>
<path d="M6.68335 12.7315C5.69792 12.7315 4.88594 11.8413 4.88594 10.748C4.88594 9.65476 5.68217 8.76456 6.68335 8.76456C7.69239 8.76456 8.49651 9.66258 8.48073 10.748C8.48073 11.8413 7.68451 12.7315 6.68335 12.7315Z" fill="white"/>
<path d="M13.329 12.7315C12.3435 12.7315 11.5316 11.8413 11.5316 10.748C11.5316 9.65476 12.3278 8.76456 13.329 8.76456C14.338 8.76456 15.1421 9.66258 15.1264 10.748C15.1264 11.8413 14.338 12.7315 13.329 12.7315Z" fill="white"/>
</g>
</g>
</svg>
