<svg width="25" height="24" viewBox="0 0 25 24" fill="none" xmlns="http://www.w3.org/2000/svg">
<g id="discord-coloured-circle" clip-path="url(#clip0_1694_39574)">
<g id="discord-coloured-circle_2">
<path d="M12.5 24C19.1274 24 24.5 18.6274 24.5 12C24.5 5.37258 19.1274 0 12.5 0C5.87258 0 0.5 5.37258 0.5 12C0.5 18.6274 5.87258 24 12.5 24Z" fill="#5865F2"/>
<path d="M18.0456 6.18483C17.0081 5.69406 15.9133 5.34411 14.7885 5.14376C14.7782 5.14175 14.7676 5.14312 14.7582 5.1477C14.7488 5.15227 14.741 5.1598 14.7359 5.1692C14.5866 5.44823 14.451 5.73485 14.3297 6.02796C13.1173 5.83818 11.884 5.83818 10.6716 6.02796C10.5497 5.73412 10.4122 5.44743 10.2597 5.1692C10.2544 5.15999 10.2466 5.15263 10.2373 5.14809C10.2279 5.14354 10.2174 5.14203 10.2072 5.14376C9.08268 5.34379 7.9882 5.69375 6.95131 6.18483C6.94238 6.18869 6.93484 6.19534 6.92974 6.20383C4.85553 9.39822 4.28736 12.514 4.56613 15.5905C4.56693 15.5981 4.56919 15.6054 4.57279 15.612C4.57639 15.6187 4.58124 15.6245 4.58707 15.6292C5.79492 16.5514 7.14602 17.2553 8.58268 17.711C8.59282 17.7141 8.60364 17.714 8.6137 17.7106C8.62375 17.7072 8.63256 17.7007 8.63893 17.692C8.94741 17.2591 9.22075 16.8008 9.45618 16.3217C9.45939 16.3151 9.46122 16.3079 9.46154 16.3006C9.46186 16.2932 9.46067 16.2859 9.45804 16.279C9.45542 16.2722 9.45141 16.266 9.4463 16.2609C9.44118 16.2557 9.43507 16.2518 9.42837 16.2492C8.99727 16.0795 8.57989 15.8749 8.18015 15.6372C8.17289 15.6328 8.1668 15.6267 8.16241 15.6193C8.15802 15.6119 8.15546 15.6035 8.15497 15.5948C8.15447 15.5861 8.15606 15.5775 8.15958 15.5696C8.1631 15.5617 8.16844 15.5549 8.17515 15.5496C8.25891 15.4852 8.34297 15.4175 8.42298 15.3493C8.43008 15.3432 8.43867 15.3394 8.44778 15.3381C8.45689 15.3369 8.46616 15.3383 8.47455 15.3422C11.0932 16.5746 13.9284 16.5746 16.5161 15.3422C16.5245 15.338 16.5339 15.3364 16.5432 15.3375C16.5525 15.3387 16.5613 15.3425 16.5686 15.3486C16.6486 15.4166 16.7327 15.4849 16.8186 15.5496C16.8253 15.5548 16.8307 15.5616 16.8343 15.5695C16.8379 15.5773 16.8395 15.586 16.8391 15.5946C16.8386 15.6033 16.8362 15.6117 16.8318 15.6191C16.8275 15.6266 16.8214 15.6328 16.8142 15.6372C16.415 15.8772 15.9968 16.0819 15.5641 16.2492C15.5574 16.2519 15.5513 16.2559 15.5462 16.2612C15.541 16.2664 15.5371 16.2727 15.5345 16.2797C15.5319 16.2866 15.5308 16.294 15.5312 16.3014C15.5317 16.3089 15.5336 16.3161 15.5369 16.3227C15.7763 16.7992 16.0492 17.257 16.3536 17.6923C16.3597 17.7013 16.3685 17.708 16.3786 17.7115C16.3887 17.7151 16.3996 17.7152 16.4098 17.712C17.8484 17.2576 19.2013 16.5536 20.4101 15.6301C20.416 15.6257 20.421 15.62 20.4246 15.6135C20.4282 15.6069 20.4304 15.5996 20.4311 15.5921C20.7648 12.0347 19.8723 8.94437 18.0653 6.20512C18.0612 6.19618 18.0542 6.18899 18.0456 6.18483ZM9.84684 13.7174C9.05834 13.7174 8.40923 12.9714 8.40923 12.0553C8.40923 11.1392 9.04615 10.3932 9.84684 10.3932C10.6541 10.3932 11.2976 11.1457 11.2844 12.0553C11.2851 12.9714 10.6478 13.7174 9.84684 13.7174ZM15.1638 13.7174C14.3753 13.7174 13.7262 12.9714 13.7262 12.0553C13.7262 11.1392 14.3631 10.3932 15.1638 10.3932C15.971 10.3932 16.6145 11.1457 16.6014 12.0553C16.6017 12.9714 15.971 13.7174 15.1638 13.7174Z" fill="white"/>
</g>
</g>
<defs>
<clipPath id="clip0_1694_39574">
<rect width="24" height="24" fill="white" transform="translate(0.5)"/>
</clipPath>
</defs>
</svg>
