<svg width="20" height="20" viewBox="0 0 20 20" fill="none" xmlns="http://www.w3.org/2000/svg">
<g id="facebook-coloured" clip-path="url(#clip0_2697_31292)">
<g id="Vector">
<path d="M20 10C20 4.47716 15.5228 0 10 0C4.47716 0 0 4.47716 0 10C0 14.6898 3.2286 18.6249 7.58424 19.7055V13.0558H5.52216V10H7.58424V8.68324C7.58424 5.27956 9.12456 3.70196 12.4662 3.70196C13.0997 3.70196 14.1928 3.82616 14.64 3.9504V6.72056C14.404 6.69572 13.9941 6.68328 13.4848 6.68328C11.845 6.68328 11.2115 7.3044 11.2115 8.91928V10H14.4778L13.9167 13.0558H11.2115V19.9268C16.1629 19.3287 20 15.1127 20 10Z" fill="#0866FF"/>
<path d="M13.9167 13.0558L14.4778 10H11.2115L11.2115 8.91924C11.2115 7.30436 11.845 6.68328 13.4848 6.68328C13.9941 6.68328 14.404 6.69568 14.64 6.72052L14.64 3.9504C14.1928 3.82616 13.0997 3.70192 12.4662 3.70192C9.1246 3.70192 7.58424 5.27956 7.58424 8.68324V10H5.52216V13.0558H7.58424V19.7055C8.35796 19.8974 9.16696 20 10 20C10.4102 20 10.8143 19.9747 11.2115 19.9268V13.0558H13.9167Z" fill="white"/>
</g>
</g>
<defs>
<clipPath id="clip0_2697_31292">
<rect width="20" height="20" fill="white"/>
</clipPath>
</defs>
</svg>
