<svg width="25" height="24" viewBox="0 0 25 24" fill="none" xmlns="http://www.w3.org/2000/svg">
<g id="facebook-coloured" clip-path="url(#clip0_1694_39598)">
<g id="Vector">
<path d="M24.5 12C24.5 5.37259 19.1274 0 12.5 0C5.87259 0 0.5 5.37259 0.5 12C0.5 17.6278 4.37432 22.3499 9.60109 23.6466V15.667H7.12659V12H9.60109V10.4199C9.60109 6.33547 11.4495 4.44235 15.4594 4.44235C16.2196 4.44235 17.5314 4.59139 18.068 4.74048V8.06467C17.7848 8.03487 17.2929 8.01994 16.6817 8.01994C14.714 8.01994 13.9538 8.76528 13.9538 10.7031V12H17.8734L17.2001 15.667H13.9538V23.9121C19.8955 23.1945 24.5 18.1353 24.5 12Z" fill="#0866FF"/>
<path d="M17.2001 15.667L17.8734 12H13.9538L13.9538 10.7031C13.9538 8.76523 14.714 8.01994 16.6817 8.01994C17.2929 8.01994 17.7848 8.03481 18.068 8.06462L18.068 4.74048C17.5314 4.59139 16.2196 4.4423 15.4594 4.4423C11.4495 4.4423 9.60109 6.33547 9.60109 10.4199V12H7.12659V15.667H9.60109V23.6466C10.5296 23.8769 11.5003 24 12.5 24C12.9922 24 13.4771 23.9697 13.9538 23.9121V15.667H17.2001Z" fill="white"/>
</g>
</g>
<defs>
<clipPath id="clip0_1694_39598">
<rect width="24" height="24" fill="white" transform="translate(0.5)"/>
</clipPath>
</defs>
</svg>
