<svg width="20" height="20" viewBox="0 0 20 20" fill="none" xmlns="http://www.w3.org/2000/svg">
<g id="globe-02" clip-path="url(#clip0_2710_31664)">
<path id="Vector" fill-rule="evenodd" clip-rule="evenodd" d="M2.68577 8.33203C2.56414 8.86805 2.49992 9.42587 2.49992 9.9987C2.49992 10.5715 2.56414 11.1293 2.68577 11.6654H5.96859C5.89041 11.1214 5.84499 10.5706 5.83343 10.0161C5.83319 10.0045 5.83319 9.99291 5.83343 9.98134C5.84499 9.42675 5.89041 8.87604 5.96859 8.33203H2.68577ZM3.27952 6.66536H6.3159C6.69859 5.27271 7.30175 3.94708 8.10467 2.74022C5.98726 3.29155 4.23391 4.7449 3.27952 6.66536ZM9.99992 2.9577C9.13352 4.07392 8.47655 5.3303 8.05358 6.66536H11.9463C11.5233 5.3303 10.8663 4.07392 9.99992 2.9577ZM12.345 8.33203H7.65482C7.5647 8.88048 7.51262 9.4373 7.50011 9.9987C7.51262 10.5601 7.5647 11.1169 7.65482 11.6654H12.345C12.4351 11.1169 12.4872 10.5601 12.4997 9.9987C12.4872 9.4373 12.4351 8.88048 12.345 8.33203ZM14.0313 11.6654C14.1094 11.1214 14.1549 10.5706 14.1664 10.0161C14.1666 10.0045 14.1666 9.99291 14.1664 9.98134C14.1549 9.42675 14.1094 8.87604 14.0313 8.33203H17.3141C17.4357 8.86805 17.4999 9.42587 17.4999 9.9987C17.4999 10.5715 17.4357 11.1293 17.3141 11.6654H14.0313ZM11.9463 13.332H8.05358C8.47655 14.6671 9.13352 15.9235 9.99992 17.0397C10.8663 15.9235 11.5233 14.6671 11.9463 13.332ZM8.10467 17.2572C7.30175 16.0503 6.69859 14.7247 6.3159 13.332H3.27952C4.23391 15.2525 5.98726 16.7058 8.10467 17.2572ZM11.8952 17.2572C12.6981 16.0503 13.3012 14.7247 13.6839 13.332H16.7203C15.7659 15.2525 14.0126 16.7058 11.8952 17.2572ZM16.7203 6.66536H13.6839C13.3012 5.27271 12.6981 3.94708 11.8952 2.74022C14.0126 3.29155 15.7659 4.7449 16.7203 6.66536ZM0.833252 9.9987C0.833252 4.93609 4.93731 0.832031 9.99992 0.832031C15.0625 0.832031 19.1666 4.93609 19.1666 9.9987C19.1666 15.0613 15.0625 19.1654 9.99992 19.1654C4.93731 19.1654 0.833252 15.0613 0.833252 9.9987Z" fill="#1B1B18"/>
</g>
<defs>
<clipPath id="clip0_2710_31664">
<rect width="20" height="20" fill="white"/>
</clipPath>
</defs>
</svg>
