<svg width="21" height="20" viewBox="0 0 21 20" fill="none" xmlns="http://www.w3.org/2000/svg">
<g id="google-coloured" clip-path="url(#clip0_2074_16760)">
<g id="google-coloured_2">
<path fill-rule="evenodd" clip-rule="evenodd" d="M20.1 10.2273C20.1 9.51818 20.0364 8.83636 19.9182 8.18182H10.5V12.05H15.8818C15.65 13.3 14.9455 14.3591 13.8864 15.0682V17.5773H17.1182C19.0091 15.8364 20.1 13.2727 20.1 10.2273Z" fill="#4285F4"/>
<path fill-rule="evenodd" clip-rule="evenodd" d="M10.4999 19.9999C13.1999 19.9999 15.4636 19.1045 17.1182 17.5773L13.8864 15.0682C12.9909 15.6682 11.8454 16.0226 10.4999 16.0226C7.89538 16.0226 5.69084 14.2635 4.90447 11.8999H1.56357V14.4908C3.20902 17.759 6.59084 19.9999 10.4999 19.9999Z" fill="#34A853"/>
<path fill-rule="evenodd" clip-rule="evenodd" d="M4.90447 11.8999C4.70447 11.2999 4.59091 10.6591 4.59091 10.0001C4.59091 9.34096 4.70455 8.70005 4.90455 8.10005V5.50914H1.56364C0.886364 6.85914 0.5 8.38642 0.5 10.0001C0.5 11.6137 0.886293 13.1408 1.56357 14.4908L4.90447 11.8999Z" fill="#FBBC05"/>
<path fill-rule="evenodd" clip-rule="evenodd" d="M10.4999 3.97727C11.9681 3.97727 13.2863 4.48182 14.3227 5.47273L17.1908 2.60455C15.459 0.990909 13.1954 0 10.4999 0C6.59084 0 3.20909 2.24096 1.56364 5.50914L4.90455 8.10005C5.69091 5.73642 7.89538 3.97727 10.4999 3.97727Z" fill="#EA4335"/>
</g>
</g>
<defs>
<clipPath id="clip0_2074_16760">
<rect width="20" height="20" fill="white" transform="translate(0.5)"/>
</clipPath>
</defs>
</svg>
