<svg width="20" height="20" viewBox="0 0 20 20" fill="none" xmlns="http://www.w3.org/2000/svg">
<g id="instagram-coloured" clip-path="url(#clip0_2710_31661)">
<g id="instagram-coloured_2">
<path d="M10.0033 0C5.82836 0 4.60736 0.00430806 4.37002 0.024002C3.51325 0.0952388 2.98012 0.230173 2.39931 0.519429C1.9517 0.741755 1.59869 0.999469 1.25029 1.36073C0.615799 2.01956 0.231256 2.83009 0.0920511 3.79355C0.0243715 4.26128 0.00468288 4.35668 0.000683632 6.7458C-0.00085454 7.54218 0.000683632 8.59027 0.000683632 9.99608C0.000683632 14.1687 0.00529815 15.3888 0.0252944 15.6258C0.0945121 16.4597 0.225257 16.9844 0.502128 17.5583C1.03126 18.6568 2.04184 19.4815 3.23238 19.7892C3.64461 19.8954 4.09991 19.9538 4.68442 19.9815C4.93206 19.9923 7.4562 20 9.98188 20C12.5076 20 15.0332 19.9969 15.2747 19.9846C15.9515 19.9528 16.3445 19.9 16.7791 19.7877C17.3694 19.6362 17.9195 19.3577 18.3911 18.9716C18.8627 18.5855 19.2443 18.101 19.5093 17.5521C19.7808 16.9921 19.9185 16.4474 19.9808 15.657C19.9943 15.4847 20 12.7372 20 9.99346C20 7.24923 19.9938 4.50684 19.9803 4.33452C19.9172 3.53138 19.7796 2.99133 19.4993 2.42051C19.2694 1.95324 19.014 1.60429 18.6433 1.24749C17.9819 0.615437 17.1728 0.230789 16.2086 0.0917001C15.7414 0.0241559 15.6484 0.0041542 13.258 0H10.0033Z" fill="url(#paint0_radial_2710_31661)"/>
<path d="M10.0033 0C5.82836 0 4.60736 0.00430806 4.37002 0.024002C3.51325 0.0952388 2.98012 0.230173 2.39931 0.519429C1.9517 0.741755 1.59869 0.999469 1.25029 1.36073C0.615799 2.01956 0.231256 2.83009 0.0920511 3.79355C0.0243715 4.26128 0.00468288 4.35668 0.000683632 6.7458C-0.00085454 7.54218 0.000683632 8.59027 0.000683632 9.99608C0.000683632 14.1687 0.00529815 15.3888 0.0252944 15.6258C0.0945121 16.4597 0.225257 16.9844 0.502128 17.5583C1.03126 18.6568 2.04184 19.4815 3.23238 19.7892C3.64461 19.8954 4.09991 19.9538 4.68442 19.9815C4.93206 19.9923 7.4562 20 9.98188 20C12.5076 20 15.0332 19.9969 15.2747 19.9846C15.9515 19.9528 16.3445 19.9 16.7791 19.7877C17.3694 19.6362 17.9195 19.3577 18.3911 18.9716C18.8627 18.5855 19.2443 18.101 19.5093 17.5521C19.7808 16.9921 19.9185 16.4474 19.9808 15.657C19.9943 15.4847 20 12.7372 20 9.99346C20 7.24923 19.9938 4.50684 19.9803 4.33452C19.9172 3.53138 19.7796 2.99133 19.4993 2.42051C19.2694 1.95324 19.014 1.60429 18.6433 1.24749C17.9819 0.615437 17.1728 0.230789 16.2086 0.0917001C15.7414 0.0241559 15.6484 0.0041542 13.258 0H10.0033Z" fill="url(#paint1_radial_2710_31661)"/>
<path d="M10.0005 2.5C7.96365 2.5 7.70802 2.50891 6.90801 2.54531C6.10957 2.58188 5.56456 2.70828 5.08768 2.89375C4.5944 3.08531 4.17595 3.34156 3.75908 3.75859C3.34188 4.17547 3.08563 4.59391 2.89344 5.08703C2.7075 5.56406 2.58094 6.10922 2.545 6.90734C2.50938 7.70734 2.5 7.96312 2.5 10C2.5 12.0369 2.50906 12.2917 2.54531 13.0917C2.58203 13.8902 2.70844 14.4352 2.89375 14.912C3.08547 15.4053 3.34173 15.8237 3.75876 16.2406C4.17549 16.6578 4.59393 16.9147 5.0869 17.1063C5.56409 17.2917 6.10926 17.4181 6.90755 17.4547C7.70755 17.4911 7.96303 17.5 9.99977 17.5C12.0368 17.5 12.2917 17.4911 13.0917 17.4547C13.8901 17.4181 14.4357 17.2917 14.9129 17.1063C15.4061 16.9147 15.8239 16.6578 16.2406 16.2406C16.6578 15.8237 16.9141 15.4053 17.1062 14.9122C17.2906 14.4352 17.4172 13.89 17.4547 13.0919C17.4906 12.2919 17.5 12.0369 17.5 10C17.5 7.96312 17.4906 7.7075 17.4547 6.9075C17.4172 6.10906 17.2906 5.56406 17.1062 5.08719C16.9141 4.59391 16.6578 4.17547 16.2406 3.75859C15.8234 3.34141 15.4062 3.08516 14.9125 2.89375C14.4343 2.70828 13.889 2.58188 13.0906 2.54531C12.2906 2.50891 12.0359 2.5 9.99836 2.5H10.0005ZM9.32773 3.85156C9.52742 3.85125 9.75023 3.85156 10.0005 3.85156C12.0031 3.85156 12.2404 3.85875 13.0312 3.89469C13.7625 3.92812 14.1593 4.05031 14.4237 4.15297C14.7737 4.28891 15.0233 4.45141 15.2856 4.71391C15.5481 4.97641 15.7106 5.22641 15.8469 5.57641C15.9495 5.84047 16.0719 6.23734 16.1051 6.96859C16.1411 7.75922 16.1489 7.99672 16.1489 9.99828C16.1489 11.9998 16.1411 12.2373 16.1051 13.028C16.0717 13.7592 15.9495 14.1561 15.8469 14.4202C15.7109 14.7702 15.5481 15.0194 15.2856 15.2817C15.0231 15.5442 14.7739 15.7067 14.4237 15.8427C14.1597 15.9458 13.7625 16.0677 13.0312 16.1011C12.2406 16.137 12.0031 16.1448 10.0005 16.1448C7.99787 16.1448 7.76052 16.137 6.96989 16.1011C6.23863 16.0673 5.84175 15.9452 5.57722 15.8425C5.22722 15.7066 4.97721 15.5441 4.71471 15.2816C4.45221 15.0191 4.28971 14.7697 4.15345 14.4195C4.0508 14.1555 3.92845 13.7586 3.89517 13.0273C3.85923 12.2367 3.85205 11.9992 3.85205 9.99641C3.85205 7.99359 3.85923 7.75734 3.89517 6.96672C3.92861 6.23547 4.0508 5.83859 4.15345 5.57422C4.28939 5.22422 4.45221 4.97422 4.71471 4.71172C4.97721 4.44922 5.22722 4.28672 5.57722 4.15047C5.8416 4.04734 6.23863 3.92547 6.96989 3.89188C7.66177 3.86063 7.9299 3.85125 9.32773 3.84969V3.85156ZM14.004 5.09687C13.826 5.09687 13.652 5.14967 13.504 5.24857C13.356 5.34748 13.2406 5.48806 13.1725 5.65253C13.1044 5.817 13.0866 5.99798 13.1213 6.17257C13.1561 6.34716 13.2418 6.50753 13.3677 6.63338C13.4936 6.75924 13.654 6.84493 13.8286 6.87962C14.0032 6.91431 14.1842 6.89644 14.3487 6.82828C14.5131 6.76011 14.6537 6.64471 14.7525 6.49666C14.8514 6.34862 14.9041 6.17458 14.904 5.99656C14.904 5.49969 14.5009 5.09687 14.004 5.09687ZM10.0005 6.14844C7.87349 6.14844 6.14894 7.87297 6.14894 10C6.14894 12.127 7.87349 13.8508 10.0005 13.8508C12.1276 13.8508 13.8517 12.127 13.8517 10C13.8517 7.87297 12.1276 6.14844 10.0005 6.14844ZM10.0005 7.5C11.3812 7.5 12.5006 8.61922 12.5006 10C12.5006 11.3806 11.3812 12.5 10.0005 12.5C8.61975 12.5 7.50052 11.3806 7.50052 10C7.50052 8.61922 8.61975 7.5 10.0005 7.5Z" fill="white"/>
</g>
</g>
<defs>
<radialGradient id="paint0_radial_2710_31661" cx="0" cy="0" r="1" gradientUnits="userSpaceOnUse" gradientTransform="translate(5.31253 21.5404) rotate(-90) scale(19.8215 18.4355)">
<stop stop-color="#FFDD55"/>
<stop offset="0.1" stop-color="#FFDD55"/>
<stop offset="0.5" stop-color="#FF543E"/>
<stop offset="1" stop-color="#C837AB"/>
</radialGradient>
<radialGradient id="paint1_radial_2710_31661" cx="0" cy="0" r="1" gradientUnits="userSpaceOnUse" gradientTransform="translate(-3.35011 1.44077) rotate(78.6806) scale(8.86028 36.5225)">
<stop stop-color="#3771C8"/>
<stop offset="0.128" stop-color="#3771C8"/>
<stop offset="1" stop-color="#6600FF" stop-opacity="0"/>
</radialGradient>
<clipPath id="clip0_2710_31661">
<rect width="20" height="20" fill="white"/>
</clipPath>
</defs>
</svg>
