<svg width="25" height="24" viewBox="0 0 25 24" fill="none" xmlns="http://www.w3.org/2000/svg">
<g id="line-coloured">
<g clip-path="url(#clip0_2194_98218)">
<path id="Vector" d="M19.0895 0H5.9105C2.92236 0 0.5 2.42236 0.5 5.4105V18.5895C0.5 21.5776 2.92236 24 5.9105 24H19.0895C22.0776 24 24.5 21.5776 24.5 18.5895V5.4105C24.5 2.42236 22.0776 0 19.0895 0Z" fill="#06C755"/>
<path id="White" d="M20.4996 10.8685C20.4996 7.288 16.9101 4.375 12.4978 4.375C8.08559 4.375 4.49609 7.288 4.49609 10.8685C4.49609 14.0785 7.34609 16.7672 11.1876 17.275C11.4486 17.3312 11.8033 17.4467 11.8926 17.6695C11.9736 17.872 11.9458 18.1892 11.9188 18.3932C11.9188 18.3932 11.8251 18.958 11.8048 19.078C11.7696 19.2805 11.6436 19.8693 12.4978 19.51C13.3521 19.1508 17.1058 16.7965 18.7843 14.8637C19.9438 13.5925 20.4996 12.2995 20.4996 10.8685Z" fill="white"/>
<g id="Vector_2">
<path d="M14.171 9.14063H14.738C14.758 9.14062 14.7777 9.1446 14.7961 9.15232C14.8145 9.16005 14.8312 9.17137 14.8452 9.18561C14.8591 9.19986 14.8701 9.21675 14.8775 9.2353C14.8848 9.25385 14.8884 9.27368 14.888 9.29363V12.7766C14.888 12.8164 14.8722 12.8546 14.8441 12.8827C14.8159 12.9108 14.7778 12.9266 14.738 12.9266H14.174C14.1604 12.9264 14.1468 12.9246 14.1335 12.9214H14.1103L14.1028 12.9176H14.0983L14.0893 12.9116C14.074 12.9011 14.0607 12.8879 14.0503 12.8726L12.4505 10.7126V12.8074C12.4505 12.8472 12.4347 12.8853 12.4066 12.9134C12.3784 12.9416 12.3403 12.9574 12.3005 12.9574H11.7328C11.693 12.9574 11.6548 12.9416 11.6267 12.9134C11.5986 12.8853 11.5828 12.8472 11.5828 12.8074V9.31538C11.5828 9.27559 11.5986 9.23744 11.6267 9.20931C11.6548 9.18118 11.693 9.16538 11.7328 9.16538H12.368L12.3763 9.16987H12.3808L12.389 9.17588H12.3935L12.4018 9.18263L12.4108 9.19163C12.4156 9.19638 12.4199 9.20166 12.4235 9.20737L14.021 11.3651V9.29063C14.021 9.25084 14.0368 9.21269 14.0649 9.18456C14.0931 9.15643 14.1312 9.14063 14.171 9.14063Z" fill="#06C755"/>
<path d="M10.8748 9.14063H10.3078C10.2233 9.14063 10.1548 9.20913 10.1548 9.29363V12.7856C10.1548 12.8701 10.2233 12.9386 10.3078 12.9386H10.8748C10.9593 12.9386 11.0278 12.8701 11.0278 12.7856V9.29363C11.0278 9.20913 10.9593 9.14063 10.8748 9.14063Z" fill="#06C755"/>
<path d="M9.62784 12.8947C9.59971 12.9228 9.56156 12.9386 9.52177 12.9386L9.52402 12.9364H7.27402C7.23424 12.9364 7.19609 12.9206 7.16796 12.8924C7.13983 12.8643 7.12402 12.8262 7.12402 12.7864V9.29662C7.12402 9.25684 7.13983 9.21869 7.16796 9.19056C7.19609 9.16243 7.23424 9.14662 7.27402 9.14662H7.84402C7.88381 9.14662 7.92196 9.16243 7.95009 9.19056C7.97822 9.21869 7.99402 9.25684 7.99402 9.29662V12.0716H9.52177C9.56156 12.0716 9.59971 12.0874 9.62784 12.1156C9.65597 12.1437 9.67177 12.1818 9.67177 12.2216V12.7886C9.67177 12.8284 9.65597 12.8666 9.62784 12.8947Z" fill="#06C755"/>
<path d="M15.587 12.9386H17.837C17.8572 12.9386 17.8771 12.9346 17.8957 12.9267C17.9142 12.9189 17.931 12.9074 17.945 12.8929C17.959 12.8784 17.9699 12.8612 17.9771 12.8424C17.9844 12.8236 17.9877 12.8035 17.987 12.7834V12.2164C17.987 12.1766 17.9712 12.1384 17.9431 12.1103C17.9149 12.0822 17.8768 12.0664 17.837 12.0664H16.3093V11.4769H17.837C17.8768 11.4769 17.9149 11.4611 17.9431 11.433C17.9712 11.4048 17.987 11.3667 17.987 11.3269V10.7539C17.987 10.7141 17.9712 10.6759 17.9431 10.6478C17.9149 10.6197 17.8768 10.6039 17.837 10.6039H16.3093V10.0151H17.837C17.8768 10.0151 17.9149 9.99933 17.9431 9.9712C17.9712 9.94307 17.987 9.90492 17.987 9.86513V9.29738C17.987 9.2576 17.9712 9.21945 17.9431 9.19132C17.9149 9.16319 17.8768 9.14738 17.837 9.14738H15.587C15.5472 9.14738 15.5091 9.16319 15.4809 9.19132C15.4528 9.21945 15.437 9.2576 15.437 9.29738V12.7886C15.437 12.8284 15.4528 12.8666 15.4809 12.8947C15.5091 12.9228 15.5472 12.9386 15.587 12.9386Z" fill="#06C755"/>
</g>
</g>
</g>
<defs>
<clipPath id="clip0_2194_98218">
<rect x="0.5" width="24" height="24" rx="12" fill="white"/>
</clipPath>
</defs>
</svg>
