<svg width="25" height="24" viewBox="0 0 25 24" fill="none" xmlns="http://www.w3.org/2000/svg">
<g id="linkedin-coloured" clip-path="url(#clip0_1694_39590)">
<g id="Linkedin-coloured">
<path fill-rule="evenodd" clip-rule="evenodd" d="M2.27383 0C1.29442 0 0.5 0.770223 0.5 1.71923V22.2814C0.5 23.2304 1.29442 24 2.27383 24H22.7262C23.7059 24 24.5 23.2304 24.5 22.2811V1.71923C24.5 0.770223 23.7059 0 22.7262 0H2.27383ZM7.77518 9.2542V20.0915H4.15022V9.2542H7.77518ZM8.01401 5.90261C8.01401 6.94259 7.22719 7.77482 5.96333 7.77482H5.93957C4.72291 7.77482 3.93641 6.94259 3.93641 5.90261C3.93641 4.83903 4.74667 4.03009 5.9874 4.03009C7.22719 4.03009 7.99025 4.83903 8.01401 5.90261ZM13.4062 20.0915H9.78151C9.78182 20.0276 9.82887 10.2679 9.78183 9.25452H13.4065V10.7887C13.8882 10.0504 14.7506 9.00019 16.6735 9.00019C19.0584 9.00019 20.8464 10.5491 20.8464 13.8777V20.0915H17.2218V14.2945C17.2218 12.8375 16.6969 11.8438 15.3856 11.8438C14.384 11.8438 13.7875 12.5139 13.5256 13.1613C13.4299 13.3924 13.4062 13.7166 13.4062 14.0402V20.0915Z" fill="#0A66C2"/>
<path d="M7.77518 20.0915V9.2542H4.15022V20.0915H7.77518Z" fill="white"/>
<path d="M5.96333 7.77482C7.22719 7.77482 8.01401 6.94259 8.01401 5.90261C7.99025 4.83903 7.22719 4.03009 5.9874 4.03009C4.74667 4.03009 3.93641 4.83903 3.93641 5.90261C3.93641 6.94259 4.72291 7.77482 5.93957 7.77482H5.96333Z" fill="white"/>
<path d="M9.78151 20.0915H13.4062V14.0402C13.4062 13.7166 13.4299 13.3924 13.5256 13.1613C13.7875 12.5139 14.384 11.8438 15.3856 11.8438C16.6969 11.8438 17.2218 12.8375 17.2218 14.2945V20.0915H20.8464V13.8777C20.8464 10.5491 19.0584 9.00019 16.6735 9.00019C14.7506 9.00019 13.8882 10.0504 13.4065 10.7887V9.25452H9.78183C9.82887 10.2679 9.78182 20.0276 9.78151 20.0915Z" fill="white"/>
</g>
</g>
<defs>
<clipPath id="clip0_1694_39590">
<rect width="24" height="24" fill="white" transform="translate(0.5)"/>
</clipPath>
</defs>
</svg>
