<svg width="20" height="20" viewBox="0 0 20 20" fill="none" xmlns="http://www.w3.org/2000/svg">
<g id="linkedin-coloured" clip-path="url(#clip0_2710_31673)">
<g id="Linkedin-coloured">
<path fill-rule="evenodd" clip-rule="evenodd" d="M1.47819 0C0.662019 0 0 0.641853 0 1.43269V18.5678C0 19.3587 0.662019 20 1.47819 20H18.5218C19.3382 20 20 19.3587 20 18.5676V1.43269C20 0.641853 19.3382 0 18.5218 0H1.47819ZM6.06265 7.71184V16.7429H3.04185V7.71184H6.06265ZM6.26168 4.91884C6.26168 5.78549 5.60599 6.47902 4.55278 6.47902H4.53297C3.51909 6.47902 2.86367 5.78549 2.86367 4.91884C2.86367 4.03253 3.53889 3.35841 4.57283 3.35841C5.60599 3.35841 6.24188 4.03253 6.26168 4.91884ZM10.7551 16.7429H7.73459C7.73485 16.6896 7.77406 8.55656 7.73486 7.7121H10.7554V8.99058C11.1569 8.37531 11.8755 7.50016 13.4779 7.50016C15.4653 7.50016 16.9554 8.79095 16.9554 11.5648V16.7429H13.9348V11.9121C13.9348 10.6979 13.4974 9.86979 12.4046 9.86979C11.57 9.86979 11.0729 10.4282 10.8546 10.9678C10.7749 11.1603 10.7551 11.4305 10.7551 11.7001V16.7429Z" fill="#0A66C2"/>
<path d="M6.06265 16.7429V7.71184H3.04185V16.7429H6.06265Z" fill="white"/>
<path d="M4.55278 6.47902C5.60599 6.47902 6.26168 5.78549 6.26168 4.91884C6.24188 4.03253 5.60599 3.35841 4.57283 3.35841C3.53889 3.35841 2.86367 4.03253 2.86367 4.91884C2.86367 5.78549 3.51909 6.47902 4.53297 6.47902H4.55278Z" fill="white"/>
<path d="M7.73459 16.7429H10.7551V11.7001C10.7551 11.4305 10.7749 11.1603 10.8546 10.9678C11.0729 10.4282 11.57 9.86979 12.4046 9.86979C13.4974 9.86979 13.9348 10.6979 13.9348 11.9121V16.7429H16.9554V11.5648C16.9554 8.79095 15.4653 7.50016 13.4779 7.50016C11.8755 7.50016 11.1569 8.37531 10.7554 8.99058V7.7121H7.73486C7.77406 8.55656 7.73485 16.6896 7.73459 16.7429Z" fill="white"/>
</g>
</g>
<defs>
<clipPath id="clip0_2710_31673">
<rect width="20" height="20" fill="white"/>
</clipPath>
</defs>
</svg>
