<svg width="25" height="24" viewBox="0 0 25 24" fill="none" xmlns="http://www.w3.org/2000/svg">
<g id="slack-coloured" clip-path="url(#clip0_1694_39582)">
<g id="Slack-coloured">
<path d="M5.54234 15.1661C5.54234 16.5537 4.40879 17.6873 3.02117 17.6873C1.63355 17.6873 0.5 16.5537 0.5 15.1661C0.5 13.7785 1.63355 12.6449 3.02117 12.6449H5.54234V15.1661Z" fill="#E01E5A"/>
<path d="M6.81278 15.1661C6.81278 13.7785 7.94633 12.6449 9.33395 12.6449C10.7216 12.6449 11.8551 13.7785 11.8551 15.1661V21.4788C11.8551 22.8664 10.7216 24 9.33395 24C7.94633 24 6.81278 22.8664 6.81278 21.4788V15.1661Z" fill="#E01E5A"/>
<path d="M9.33383 5.04235C7.9462 5.04235 6.81266 3.9088 6.81266 2.52117C6.81266 1.13355 7.9462 0 9.33383 0C10.7214 0 11.855 1.13355 11.855 2.52117V5.04235H9.33383Z" fill="#36C5F0"/>
<path d="M9.33386 6.31271C10.7215 6.31271 11.855 7.44626 11.855 8.83389C11.855 10.2215 10.7215 11.3551 9.33386 11.3551H3.02117C1.63355 11.3551 0.5 10.2215 0.5 8.83389C0.5 7.44626 1.63355 6.31271 3.02117 6.31271H9.33386Z" fill="#36C5F0"/>
<path d="M19.4575 8.83385C19.4575 7.44623 20.5911 6.31268 21.9787 6.31268C23.3663 6.31268 24.4999 7.44623 24.4999 8.83385C24.4999 10.2215 23.3663 11.355 21.9787 11.355H19.4575V8.83385Z" fill="#2EB67D"/>
<path d="M18.1873 8.83388C18.1873 10.2215 17.0538 11.355 15.6661 11.355C14.2785 11.355 13.145 10.2215 13.145 8.83388V2.52117C13.145 1.13355 14.2785 0 15.6661 0C17.0538 0 18.1873 1.13355 18.1873 2.52117V8.83388Z" fill="#2EB67D"/>
<path d="M15.666 18.9577C17.0537 18.9577 18.1872 20.0912 18.1872 21.4788C18.1872 22.8665 17.0537 24 15.666 24C14.2784 24 13.1449 22.8665 13.1449 21.4788V18.9577H15.666Z" fill="#ECB22E"/>
<path d="M15.6661 17.6873C14.2785 17.6873 13.145 16.5537 13.145 15.1661C13.145 13.7785 14.2785 12.6449 15.6661 12.6449H21.9788C23.3665 12.6449 24.5 13.7785 24.5 15.1661C24.5 16.5537 23.3665 17.6873 21.9788 17.6873H15.6661Z" fill="#ECB22E"/>
</g>
</g>
<defs>
<clipPath id="clip0_1694_39582">
<rect width="24" height="24" fill="white" transform="translate(0.5)"/>
</clipPath>
</defs>
</svg>
