<svg width="20" height="20" viewBox="0 0 20 20" fill="none" xmlns="http://www.w3.org/2000/svg">
<g id="snapchat-neutral" clip-path="url(#clip0_2697_1970)">
<g id="Vector">
<path d="M19.9267 14.6333C19.5546 13.6 17.3 13.4556 16.2493 11.0889C16.1837 10.9111 16.1946 10.7889 16.3697 10.6778C17.1796 10.1333 17.7487 9.83333 18.0771 9.2C18.3179 8.74444 18.3507 8.21111 18.1646 7.72222C17.9129 7.04444 17.2781 6.61111 16.5011 6.61111C16.2275 6.61111 16.0086 6.66667 15.8991 6.68889C15.9101 6.22222 15.8991 5.73333 15.8553 5.24444C15.7131 3.54444 15.1221 2.64444 14.5092 1.93333C14.148 1.52222 12.7143 0 10 0C7.28575 0 5.85202 1.52222 5.49085 1.93333C4.87795 2.64444 4.28695 3.54444 4.14467 5.24444C4.11183 5.73333 4.10089 6.22222 4.10089 6.68889C3.9805 6.65556 3.77255 6.61111 3.49894 6.61111C2.73282 6.61111 2.08709 7.03333 1.83537 7.72222C1.64931 8.2 1.68214 8.74444 1.92292 9.2C2.2622 9.84444 2.82038 10.1333 3.63027 10.6778C3.80539 10.8 3.81633 10.9111 3.75066 11.0889C2.68904 13.4556 0.44541 13.6 0.0732951 14.6333C-0.0908731 15.0778 0.0185723 15.5778 0.423521 16C1.04736 16.6556 2.20748 16.8556 2.43732 17.0111C2.62338 17.1667 2.60149 17.6333 3.12682 18.0111C3.54272 18.3 4.00239 18.3222 4.49489 18.3333C5.92863 18.3889 6.24602 18.6333 6.79325 18.9778C7.48275 19.4111 8.42399 20 10 20C11.576 20 12.5172 19.4111 13.2068 18.9778C13.754 18.6333 14.0714 18.3889 15.5051 18.3333C15.9976 18.3111 16.4573 18.3 16.8732 18.0111C17.4095 17.6333 17.3876 17.1667 17.5627 17.0111C17.7925 16.8556 18.9526 16.6556 19.5765 16C19.9814 15.5778 20.0909 15.0778 19.9267 14.6333ZM18.7994 15.2222C18.3945 15.6556 17.4204 15.7778 16.906 16.1333C16.3807 16.6 16.4682 16.9556 16.2603 17.1C16.1225 17.1968 15.8822 17.2103 15.5095 17.2312C15.4972 17.2319 15.4848 17.2326 15.4723 17.2333C13.94 17.2889 13.3819 17.5778 12.7142 18C11.1492 18.9778 10.2736 18.8889 10 18.8889C9.72639 18.8889 8.85082 18.9778 7.2967 17.9889C6.62908 17.5667 6.08185 17.2889 4.53867 17.2222C4.14467 17.2111 3.89294 17.1889 3.75066 17.0889C3.54272 16.9444 3.61933 16.5889 3.10493 16.1222C2.5796 15.7667 1.61648 15.6444 1.21153 15.2111C1.14586 15.1444 1.09114 15.0556 1.08019 15.0444C1.15681 14.9333 1.52892 14.7111 1.80253 14.5556C2.65621 14.0444 3.96955 13.2889 4.76851 11.5C5.05307 10.7222 4.80134 10.1 4.24317 9.73333C2.98454 8.92222 3.00643 8.88889 2.88604 8.66667C2.84281 8.58148 2.81756 8.48807 2.8119 8.39241C2.80625 8.29674 2.82032 8.20094 2.85321 8.11111C2.98454 7.75556 3.34572 7.72222 3.48799 7.72222C3.69594 7.72222 3.685 7.73333 5.20629 8.13333C5.1844 6.57778 5.16251 6.07778 5.22818 5.34444C5.34857 3.88889 5.85202 3.2 6.30074 2.67778C6.60719 2.34444 7.80015 1.08889 10 1.11111C12.1999 1.08889 13.3928 2.34444 13.6883 2.67778C14.137 3.2 14.6405 3.88889 14.7609 5.34444C14.8265 6.07778 14.8047 6.57778 14.7828 8.13333C16.315 7.73333 16.2931 7.72222 16.5011 7.72222C16.6543 7.72222 17.0045 7.75556 17.1358 8.11111C17.2125 8.3 17.2015 8.5 17.103 8.66667C16.9826 8.88889 17.0045 8.91111 15.7568 9.74444C15.1987 10.1111 14.9469 10.7333 15.2315 11.5111C16.0304 13.3 17.3438 14.0556 18.1975 14.5667C18.4711 14.7333 18.8432 14.9444 18.9198 15.0556C18.9198 15.0667 18.8541 15.1556 18.7994 15.2222Z" fill="#1B1B18"/>
</g>
</g>
<defs>
<clipPath id="clip0_2697_1970">
<rect width="20" height="20" fill="white"/>
</clipPath>
</defs>
</svg>
