<svg width="25" height="24" viewBox="0 0 25 24" fill="none" xmlns="http://www.w3.org/2000/svg">
<g id="whatsapp-coloured" clip-path="url(#clip0_1694_39558)">
<g id="whatsapp-colored">
<path fill-rule="evenodd" clip-rule="evenodd" d="M9.68409 7.13627C9.47003 6.66239 9.24456 6.65287 9.0408 6.64463C8.88193 6.63782 8.70117 6.63784 8.5197 6.63786C8.51084 6.63786 8.50199 6.63786 8.49313 6.63786C8.30261 6.63786 7.99291 6.70927 7.73103 6.994C7.71429 7.01219 7.6956 7.03203 7.67528 7.0536C7.3776 7.36961 6.73041 8.05667 6.73041 9.36741C6.73041 10.7588 7.74158 12.1033 7.89477 12.307L7.89765 12.3108C7.90845 12.3252 7.92892 12.3554 7.95878 12.3995C8.32399 12.9386 10.0946 15.5521 12.7801 16.6067C14.9622 17.4635 15.5734 17.392 16.0578 17.3352C16.1093 17.3292 16.1595 17.3233 16.2099 17.3188C16.734 17.2713 17.9009 16.6303 18.1391 15.9658C18.3774 15.3013 18.3774 14.7319 18.3059 14.6126C18.2483 14.5173 18.1135 14.4525 17.914 14.3566C17.8657 14.3334 17.8137 14.3084 17.758 14.2807C17.4722 14.1384 16.067 13.4497 15.805 13.3549C15.5429 13.2599 15.3524 13.2126 15.1619 13.4975C14.9711 13.7821 14.4238 14.423 14.257 14.6126C14.0902 14.8029 13.9234 14.8267 13.6377 14.6842C13.5908 14.6609 13.5269 14.6332 13.448 14.5991C13.0454 14.4252 12.2522 14.0824 11.3392 13.2718C10.4896 12.5176 9.91581 11.5859 9.74901 11.301C9.59839 11.0438 9.71783 10.9042 9.83698 10.7649C9.84964 10.7501 9.86229 10.7353 9.87462 10.7204C10.1058 10.4404 10.4936 9.93705 10.5889 9.74736C10.6842 9.55729 10.6365 9.39122 10.5652 9.24876C10.5347 9.18809 10.4162 8.89741 10.2706 8.54026C10.0747 8.05983 9.82977 7.45913 9.68409 7.13627Z" fill="white"/>
<path fill-rule="evenodd" clip-rule="evenodd" d="M7.35513 19.8448L7.70253 20.0497C9.16199 20.9121 10.8353 21.3683 12.5418 21.3692H12.5455C17.7856 21.3692 22.0507 17.1233 22.0529 11.905C22.0538 9.37614 21.0659 6.99815 19.2708 5.20939C17.4755 3.42063 15.0887 2.43498 12.5489 2.43388C7.30456 2.43388 3.03964 6.67918 3.03762 11.8973C3.03689 13.6855 3.53931 15.4269 4.4912 16.9338L4.7174 17.292L3.75669 20.7842L7.35513 19.8448ZM9.0408 6.64463C9.24456 6.65287 9.47003 6.66239 9.68409 7.13627C9.82977 7.45913 10.0747 8.05983 10.2706 8.54026C10.4162 8.89741 10.5347 9.18809 10.5652 9.24876C10.6365 9.39122 10.6842 9.55729 10.5889 9.74736C10.4936 9.93705 10.1058 10.4404 9.87462 10.7204C9.86229 10.7353 9.84964 10.7501 9.83698 10.7649C9.71783 10.9042 9.59839 11.0438 9.74901 11.301C9.91581 11.5859 10.4896 12.5176 11.3392 13.2718C12.2522 14.0824 13.0454 14.4252 13.448 14.5991C13.5269 14.6332 13.5908 14.6609 13.6377 14.6842C13.9234 14.8267 14.0902 14.8029 14.257 14.6126C14.4238 14.423 14.9711 13.7821 15.1619 13.4975C15.3524 13.2126 15.5429 13.2599 15.805 13.3549C16.067 13.4497 17.4722 14.1384 17.758 14.2807C17.8137 14.3084 17.8657 14.3334 17.914 14.3566C18.1135 14.4525 18.2483 14.5173 18.3059 14.6126C18.3774 14.7319 18.3774 15.3013 18.1391 15.9658C17.9009 16.6303 16.734 17.2713 16.2099 17.3188C16.1595 17.3233 16.1093 17.3292 16.0578 17.3352C15.5734 17.392 14.9622 17.4635 12.7801 16.6067C10.0946 15.5521 8.32399 12.9386 7.95878 12.3995C7.92892 12.3554 7.90845 12.3252 7.89765 12.3108L7.89477 12.307C7.74158 12.1033 6.73041 10.7588 6.73041 9.36741C6.73041 8.05667 7.3776 7.36961 7.67528 7.0536C7.6956 7.03203 7.71429 7.01219 7.73103 6.994C7.99291 6.70927 8.30261 6.63786 8.49313 6.63786L8.5197 6.63786C8.70117 6.63784 8.88193 6.63782 9.0408 6.64463Z" fill="#28D146"/>
<path fill-rule="evenodd" clip-rule="evenodd" d="M1.0129 24C0.877543 24 0.745868 23.9467 0.648215 23.8484C0.519482 23.7188 0.469828 23.5305 0.518194 23.3546L2.08524 17.657C1.10963 15.9005 0.59525 13.9135 0.595986 11.8964C0.598744 5.33661 5.96028 0 12.5481 0C15.7434 0.00128174 18.7458 1.24054 21.0025 3.48907C23.2588 5.73779 24.5009 8.72699 24.5 11.9059C24.4971 18.4658 19.1355 23.8028 12.5481 23.8028H12.5429C10.6187 23.8021 8.71111 23.3351 7.01258 22.4507L1.14292 23.9833C1.09988 23.9945 1.05611 24 1.0129 24ZM9.0408 6.64463C9.24456 6.65287 9.47003 6.66239 9.68409 7.13627C9.82977 7.45913 10.0747 8.05983 10.2706 8.54026C10.4162 8.89741 10.5347 9.18809 10.5652 9.24876C10.6365 9.39122 10.6842 9.55729 10.5889 9.74736C10.4936 9.93705 10.1058 10.4404 9.87462 10.7204C9.86229 10.7353 9.84964 10.7501 9.83698 10.7649C9.71783 10.9042 9.59839 11.0438 9.74901 11.301C9.91581 11.5859 10.4896 12.5176 11.3392 13.2718C12.2522 14.0824 13.0454 14.4252 13.448 14.5991C13.5269 14.6332 13.5908 14.6609 13.6377 14.6842C13.9234 14.8267 14.0902 14.8029 14.257 14.6126C14.4238 14.423 14.9711 13.7821 15.1619 13.4975C15.3524 13.2126 15.5429 13.2599 15.805 13.3549C16.067 13.4497 17.4722 14.1384 17.758 14.2807C17.8137 14.3084 17.8657 14.3334 17.914 14.3566C18.1135 14.4525 18.2483 14.5173 18.3059 14.6126C18.3774 14.7319 18.3774 15.3013 18.1391 15.9658C17.9009 16.6303 16.734 17.2713 16.2099 17.3188C16.1595 17.3233 16.1093 17.3292 16.0578 17.3352C15.5734 17.392 14.9622 17.4635 12.7801 16.6067C10.0946 15.5521 8.32399 12.9386 7.95878 12.3995C7.92892 12.3554 7.90845 12.3252 7.89765 12.3108L7.89477 12.307C7.74158 12.1033 6.73041 10.7588 6.73041 9.36741C6.73041 8.05667 7.3776 7.36961 7.67528 7.0536C7.6956 7.03203 7.71429 7.01219 7.73103 6.994C7.99291 6.70927 8.30261 6.63786 8.49313 6.63786L8.5197 6.63786C8.70117 6.63784 8.88193 6.63782 9.0408 6.64463ZM2.63303 17.5892L1.01026 23.4894L7.07431 21.906C8.74508 22.8133 10.626 23.2914 12.5405 23.2922H12.5455C18.8497 23.2922 23.9817 18.1837 23.9845 11.9057C23.9856 8.86308 22.7966 6.00224 20.637 3.85002C18.4773 1.69779 15.6052 0.512003 12.5455 0.510722C6.24012 0.510722 1.10884 5.61845 1.10626 11.8966C1.10553 13.9034 1.63204 15.8623 2.63303 17.5892Z" fill="#F3F3F2"/>
<path fill-rule="evenodd" clip-rule="evenodd" d="M1.01026 23.4894L2.63303 17.5892C1.63204 15.8623 1.10553 13.9034 1.10626 11.8966C1.10884 5.61845 6.24012 0.510722 12.5455 0.510722C15.6052 0.512003 18.4773 1.69779 20.637 3.85002C22.7966 6.00224 23.9856 8.86308 23.9845 11.9057C23.9817 18.1837 18.8497 23.2922 12.5455 23.2922H12.5405C10.626 23.2914 8.74508 22.8133 7.07431 21.906L1.01026 23.4894ZM7.70253 20.0497L7.35513 19.8448L3.75669 20.7842L4.7174 17.292L4.4912 16.9338C3.53931 15.4269 3.03689 13.6855 3.03762 11.8973C3.03964 6.67918 7.30456 2.43388 12.5489 2.43388C15.0887 2.43498 17.4755 3.42063 19.2708 5.20939C21.0659 6.99815 22.0538 9.37614 22.0529 11.905C22.0507 17.1233 17.7856 21.3692 12.5455 21.3692H12.5418C10.8353 21.3683 9.16199 20.9121 7.70253 20.0497Z" fill="white"/>
</g>
</g>
<defs>
<clipPath id="clip0_1694_39558">
<rect width="24" height="24" fill="white" transform="translate(0.5)"/>
</clipPath>
</defs>
</svg>
