<svg width="20" height="20" viewBox="0 0 20 20" fill="none" xmlns="http://www.w3.org/2000/svg">
<g id="youtube-coloured">
<path id="youtube-coloured_2" d="M19.5879 5.41838C19.3575 4.60255 18.6819 3.95945 17.8252 3.73977C16.2602 3.33203 9.99977 3.33203 9.99977 3.33203C9.99977 3.33203 3.73963 3.33203 2.17456 3.72431C1.33435 3.94376 0.642335 4.60267 0.411866 5.41838C0 6.90846 0 9.9987 0 9.9987C0 9.9987 0 13.1045 0.411866 14.579C0.642579 15.3947 1.31787 16.0378 2.17469 16.2575C3.75611 16.6654 10 16.6654 10 16.6654C10 16.6654 16.2602 16.6654 17.8252 16.2731C18.682 16.0535 19.3575 15.4104 19.5882 14.5947C19.9999 13.1045 19.9999 10.0144 19.9999 10.0144C19.9999 10.0144 20.0164 6.90846 19.5879 5.41838ZM8.00661 12.8536V7.14383L13.2124 9.9987L8.00661 12.8536Z" fill="#FF0000"/>
</g>
</svg>
